<?xml version="1.0" encoding="iso-8859-1"?>
<!-- Generator: Adobe Illustrator 19.0.0, SVG Export Plug-In . SVG Version: 6.00 Build 0)  -->
<svg fill="#eee" version="1.1" id="Capa_1" xmlns="http://www.w3.org/2000/svg" xmlns:xlink="http://www.w3.org/1999/xlink" x="0px" y="0px"
	 viewBox="0 0 504.686 504.686" style="enable-background:new 0 0 504.686 504.686;" xml:space="preserve">
<g>
	<g>
		<rect x="115.403" y="164.165" width="274.692" height="16.254"/>
	</g>
</g>
<g>
	<g>
		<path d="M438.857,160.914V99.149h-70.705L252.749,0l-114.59,99.962H66.641v61.765L1.625,217.803v286.883H503.06V216.991
			L438.857,160.914z M438.857,182.857l43.886,38.197l-43.886,38.197V182.857z M252.749,21.13l90.21,78.019H162.54L252.749,21.13z
			 M82.895,115.403h339.708v157.663l-79.644,69.079H162.54l-79.644-69.079V115.403z M66.641,182.857v76.394l-43.886-38.197
			L66.641,182.857z M18.692,238.933l126.781,109.714L18.692,476.241V238.933z M30.07,487.619L159.289,358.4H346.21l129.219,129.219
			H30.07z M487.619,476.241h-0.813L360.025,348.648l127.594-110.527V476.241z"/>
	</g>
</g>
<g>
	<g>
		<rect x="115.403" y="221.054" width="274.692" height="16.254"/>
	</g>
</g>
<g>
	<g>
		<rect x="244.622" y="277.13" width="16.254" height="16.254"/>
	</g>
</g>
<g>
	<g>
		<rect x="212.114" y="277.13" width="16.254" height="16.254"/>
	</g>
</g>
<g>
	<g>
		<rect x="277.13" y="277.13" width="16.254" height="16.254"/>
	</g>
</g>
</svg>
