<?xml version="1.0" encoding="iso-8859-1"?>
<!-- Generator: Adobe Illustrator 19.0.0, SVG Export Plug-In . SVG Version: 6.00 Build 0)  -->
<svg fill="#eee" version="1.1" id="Capa_1" xmlns="http://www.w3.org/2000/svg" xmlns:xlink="http://www.w3.org/1999/xlink" x="0px" y="0px"
	 viewBox="0 0 508 508" style="enable-background:new 0 0 508 508;" xml:space="preserve">
<g>
	<g>
		<path d="M254,56.4c-56.6,0-102.6,46-102.6,102.6s46,102.6,102.6,102.6c56.6,0,102.6-46,102.6-102.6S310.6,56.4,254,56.4z
			 M254,233.4c-41,0-74.4-33.4-74.4-74.4S213,84.6,254,84.6s74.4,33.4,74.4,74.4S295,233.4,254,233.4z"/>
	</g>
</g>
<g>
	<g>
		<path d="M321.4,360.3C363.2,295.9,413,208.7,413,159C413,71.3,341.7,0,254,0S95,71.3,95,159c0,49.7,49.8,136.8,91.6,201.3
			C126.7,364.8,0,380.6,0,432.9C0,484.5,131.7,508,254,508s254-23.5,254-75.1C508,380.6,381.3,364.8,321.4,360.3z M123.2,159
			c0-72.1,58.7-130.8,130.8-130.8S384.8,86.9,384.8,159c0,56.5-85.9,187.6-130.8,250C209.1,346.7,123.2,215.6,123.2,159z M254,479.8
			c-149,0-225.8-32.8-225.8-46.9c0-10.5,52.6-39,176.3-45.5c20.5,30.3,36.2,51.4,38.1,54c2.7,3.6,6.8,5.7,11.3,5.7s8.6-2.1,11.3-5.7
			c1.9-2.6,17.6-23.7,38.1-54c123.7,6.6,176.3,35,176.3,45.5C479.8,446.9,403,479.8,254,479.8z"/>
	</g>
</g>
</svg>
